HIERARCHY
ROOT Hips
{
	OFFSET 0.00000 0.00000 0.00000
	CHANNELS 6 Xposition Yposition Zposition Zrotation Yrotation Xrotation 
	JOINT LHipJoint
	{
		OFFSET 0 0 0
		CHANNELS 3 Zrotation Yrotation Xrotation
		JOINT LeftUpLeg
		{
			OFFSET 1.37590 -1.78394 0.89329
			CHANNELS 3 Zrotation Yrotation Xrotation
			JOINT LeftLeg
			{
				OFFSET 2.47928 -6.81178 0.00000
				CHANNELS 3 Zrotation Yrotation Xrotation
				JOINT LeftFoot
				{
					OFFSET 2.63345 -7.23535 0.00000
					CHANNELS 3 Zrotation Yrotation Xrotation
					JOINT LeftToeBase
					{
						OFFSET 0.23938 -0.65768 2.27012
						CHANNELS 3 Zrotation Yrotation Xrotation
						End Site
						{
							OFFSET 0.00000 -0.00000 1.18363
						}
					}
				}
			}
		}
	}
	JOINT RHipJoint
	{
		OFFSET 0 0 0
		CHANNELS 3 Zrotation Yrotation Xrotation
		JOINT RightUpLeg
		{
			OFFSET -1.33617 -1.78394 0.89329
			CHANNELS 3 Zrotation Yrotation Xrotation
			JOINT RightLeg
			{
				OFFSET -2.56922 -7.05888 0.00000
				CHANNELS 3 Zrotation Yrotation Xrotation
				JOINT RightFoot
				{
					OFFSET -2.56568 -7.04915 0.00000
					CHANNELS 3 Zrotation Yrotation Xrotation
					JOINT RightToeBase
					{
						OFFSET -0.27533 -0.75646 2.18105
						CHANNELS 3 Zrotation Yrotation Xrotation
						End Site
						{
							OFFSET -0.00000 -0.00000 1.15233
						}
					}
				}
			}
		}
	}
	JOINT LowerBack
	{
		OFFSET 0 0 0
		CHANNELS 3 Zrotation Yrotation Xrotation
		JOINT Spine
		{
			OFFSET 0.06190 2.15152 -0.00935
			CHANNELS 3 Zrotation Yrotation Xrotation
			JOINT Spine1
			{
				OFFSET 0.06334 2.15332 0.00872
				CHANNELS 3 Zrotation Yrotation Xrotation
				JOINT Neck
				{
					OFFSET 0 0 0
					CHANNELS 3 Zrotation Yrotation Xrotation
					JOINT Neck1
					{
						OFFSET -0.04202 1.66908 0.23524
						CHANNELS 3 Zrotation Yrotation Xrotation
						JOINT Head
						{
							OFFSET 0.07510 1.69357 -0.24440
							CHANNELS 3 Zrotation Yrotation Xrotation
							End Site
							{
								OFFSET 0.02556 1.71719 -0.11000
							}
						}
					}
				}
				JOINT LeftShoulder
				{
					OFFSET 0 0 0
					CHANNELS 3 Zrotation Yrotation Xrotation
					JOINT LeftArm
					{
						OFFSET 3.67168 1.26306 -0.41342
						CHANNELS 3 Zrotation Yrotation Xrotation
						JOINT LeftForeArm
						{
							OFFSET 4.68510 -0.00000 -0.00000
							CHANNELS 3 Zrotation Yrotation Xrotation
							JOINT LeftHand
							{
								OFFSET 3.39626 -0.00000 -0.00000
								CHANNELS 3 Zrotation Yrotation Xrotation
								JOINT LeftFingerBase
								{
									OFFSET 0 0 0
									CHANNELS 3 Zrotation Yrotation Xrotation
									JOINT LeftHandIndex1
									{
										OFFSET 0.48608 -0.00000 -0.00000
										CHANNELS 3 Zrotation Yrotation Xrotation
										End Site
										{
											OFFSET 0.39189 -0.00000 -0.00000
										}
									}
								}
								JOINT LThumb
								{
									OFFSET 0 0 0
									CHANNELS 3 Zrotation Yrotation Xrotation
									End Site
									{
										OFFSET 0.39787 -0.00000 0.39787
									}
								}
							}
						}
					}
				}
				JOINT RightShoulder
				{
					OFFSET 0 0 0
					CHANNELS 3 Zrotation Yrotation Xrotation
					JOINT RightArm
					{
						OFFSET -3.04136 1.42992 -0.76390
						CHANNELS 3 Zrotation Yrotation Xrotation
						JOINT RightForeArm
						{
							OFFSET -5.55576 -0.00000 -0.00000
							CHANNELS 3 Zrotation Yrotation Xrotation
							JOINT RightHand
							{
								OFFSET -3.32774 -0.00000 -0.00000
								CHANNELS 3 Zrotation Yrotation Xrotation
								JOINT RightFingerBase
								{
									OFFSET 0 0 0
									CHANNELS 3 Zrotation Yrotation Xrotation
									JOINT RightHandIndex1
									{
										OFFSET -0.50763 -0.00000 -0.00000
										CHANNELS 3 Zrotation Yrotation Xrotation
										End Site
										{
											OFFSET -0.40926 -0.00000 -0.00000
										}
									}
								}
								JOINT RThumb
								{
									OFFSET 0 0 0
									CHANNELS 3 Zrotation Yrotation Xrotation
									End Site
									{
										OFFSET -0.41551 -0.00000 0.41551
									}
								}
							}
						}
					}
				}
			}
		}
	}
}
MOTION
Frames: 11
Frame Time: 0.117647
0.00 0.00 0.00 0 0 0 0 0 0 -21 0 0 0 0 0 0 0 0 0 0 0 0 0 0 21 0 0 0 0 0 0 0 0 0 0 0 0 0 0 0 0 0 0 0 0 0 0 -16 0 0 21 0 0 11 0 0 0 -8 0 0 0 0 0 0 0 0 0 0 0 0 0 0 0 0 0 0 0 0 8 0 0 0 0 0 0 0 0 0 0 0 0 0 0 0 0 0
0.00 0.00 0.00 -131.4170 -81.9340 141.2380 0.0000 0.0000 0.0000 -8.5990 -3.5662 -10.7649 1.7510 8.3270 23.7118 0.6885 -0.8078 -15.4226 0.1300 -2.3238 -6.4013 0.0000 0.0000 0.0000 30.1658 5.8568 -6.7936 -0.8029 -5.7190 15.9713 -0.5628 -0.4136 -14.3287 -0.7258 -5.4435 15.1781 4.5787 -0.3543 -4.0794 3.2205 -0.7890 -1.0530 0.7037 -0.4207 1.1911 -4.7057 0.6732 -12.0007 -0.7107 1.8064 18.2859 0.7148 0.3825 7.5822 -0.0000 0.0000 0.0000 -92.8806 0.2395 14.0418 13.3252 -21.7618 -2.5726 -0.0000 -0.0000 31.4588 14.5353 18.6605 4.7422 -7.1250 0.0000 -0.0000 -13.2764 48.7515 -1.2486 -0.0000 0.0000 0.0000 84.0110 0.5448 16.5635 -12.3019 20.2558 -2.2057 0.0000 0.0000 13.8417 -13.7206 -22.5739 5.3544 7.1250 -0.0000 -0.0000 15.6395 -52.4702 -2.9337
0.00 0.00 0.00 -126.1940 -81.7619 136.0630 0.0000 0.0000 0.0000 -6.5744 -3.1800 -21.4342 4.5857 12.9014 39.0005 0.6450 -1.3168 -14.7789 0.4329 -4.2224 -11.7033 0.0000 0.0000 0.0000 31.4825 5.2705 -5.5590 -0.8055 -5.7277 15.9964 -0.6162 -0.5516 -15.0404 -0.6549 -5.1764 14.4124 5.4096 -0.2726 -2.6366 3.7293 -0.6666 -0.1947 0.7787 -0.3523 1.2668 -4.7355 0.6387 -12.2632 -1.5881 1.9495 18.1803 0.4469 0.3660 7.6056 -0.0000 -0.0000 0.0000 -92.7424 -0.0750 16.5187 15.1684 -24.3802 -3.2951 -0.0000 -0.0000 28.7209 15.1085 18.6890 4.9444 -7.1250 0.0000 -0.0000 -12.7465 48.8638 -1.2330 -0.0000 -0.0000 0.0000 82.9540 1.8385 15.8393 -11.7306 19.3995 -2.0119 0.0000 0.0000 14.7094 -13.7492 -22.7653 5.4087 7.1250 -0.0000 -0.0000 15.7002 -52.6614 -3.0201
0.00 0.00 0.00 -133.7300 -79.3758 146.1690 0.0000 0.0000 0.0000 -4.4205 -12.7025 -28.1280 0.6951 5.3294 14.8506 -0.0472 4.1202 -3.0633 0.0612 -1.5960 -4.3903 0.0000 0.0000 0.0000 28.2454 2.3871 -3.9248 -2.8615 -10.4674 30.5041 -0.0553 -0.8731 -4.8550 -0.0128 0.7315 -2.0104 4.4428 1.6088 -1.5977 1.8262 1.9768 0.8296 -0.5480 1.0138 1.8361 -4.5320 0.6519 -12.6490 -1.7896 1.9471 12.9790 0.3377 0.5463 5.9973 -0.0000 -0.0000 0.0000 -91.9624 -0.1210 -10.8215 8.5987 -14.5186 -1.0973 -0.0000 -0.0000 47.1342 13.1950 18.6278 4.2829 -7.1250 0.0000 -0.0000 -14.5211 48.5252 -1.2877 -0.0000 -0.0000 0.0000 84.7238 4.9930 18.4095 -12.8298 21.0374 -2.3919 0.0000 0.0000 13.4772 -13.4863 -22.9933 5.3519 7.1250 -0.0000 -0.0000 16.0646 -52.8368 -3.1631
0.00 0.00 0.00 -143.6420 -80.1459 154.2160 0.0000 0.0000 0.0000 -9.8681 -11.1517 -21.7613 0.7496 5.5302 15.4272 0.0106 1.4119 -2.9713 0.0100 0.6471 1.7782 0.0000 0.0000 0.0000 23.7845 2.2043 -11.3375 -6.1742 -14.5950 45.6768 0.1761 -8.9724 2.1060 -0.0159 -0.8145 2.2385 2.2895 1.3617 -0.9778 0.7586 1.7642 0.6631 -0.4680 0.8944 1.2727 -4.0414 2.3413 -11.0373 -2.6320 4.1499 12.9959 0.1604 1.5753 5.7283 0.0000 0.0000 0.0000 -91.4356 -0.6250 -7.0132 9.0402 -15.2245 -1.2107 -0.0000 -0.0000 44.9239 12.0122 18.7070 3.9041 -7.1250 0.0000 -0.0000 -15.6531 48.4336 -1.3566 0.0000 0.0000 0.0000 85.4378 4.4080 21.1645 -14.3416 23.2210 -2.9615 0.0000 0.0000 12.0811 -13.2060 -22.7010 5.1746 7.1250 -0.0000 -0.0000 16.2003 -52.5045 -3.0572
0.00 0.00 0.00 -45.8795 -83.2081 54.9170 0.0000 0.0000 0.0000 -10.9199 -6.9130 -0.6979 2.5942 10.0072 29.0000 -0.2931 -11.2034 -2.1587 0.5898 -4.9171 -13.6723 0.0000 0.0000 0.0000 22.9951 10.0729 -30.1500 -1.4135 -7.5194 21.2636 0.5619 -13.1451 -5.1890 -0.8074 -5.7345 16.0161 -0.4881 -0.2094 0.7906 -2.7471 -0.2793 2.6056 -2.5526 -0.1403 2.2187 1.0283 11.1189 -8.1380 -9.7718 16.6200 18.6977 -1.7474 6.9498 8.0724 0.0000 0.0000 0.0000 -72.3129 -27.1588 -10.6692 10.3911 -17.3490 -1.5896 -0.0000 -0.0000 38.5724 21.9672 23.3143 9.0702 -7.1250 0.0000 -0.0000 -7.6644 54.7410 -1.8420 0.0000 0.0000 0.0000 85.9813 4.5085 18.8530 -12.8955 21.1339 -2.4155 0.0000 0.0000 15.0596 -11.0018 -21.9826 4.1623 7.1250 -0.0000 -0.0000 17.9891 -51.4407 -2.9336
0.00 0.00 0.00 -61.7490 -80.9165 70.2260 0.0000 0.0000 0.0000 -4.6562 -8.6730 -10.1394 5.9003 14.3310 44.5802 -0.2006 -7.9153 3.1387 0.8114 -5.7482 -16.0557 0.0000 0.0000 0.0000 30.3346 7.8774 -22.4569 -1.3625 -7.3880 20.8701 0.2596 -9.7840 -7.7149 -0.9835 -6.3125 17.6938 1.7022 0.1694 0.6508 -2.5547 0.2211 2.4267 -3.5825 0.1556 2.1446 1.4429 11.4268 -7.5842 -9.2724 16.8021 17.9193 -1.6763 7.1851 7.7106 -0.0000 -0.0000 0.0000 -67.2036 -24.7190 -13.0259 10.1770 -17.0159 -1.5263 -0.0000 -0.0000 39.6474 21.4918 21.5108 8.2154 -7.1250 0.0000 -0.0000 -7.4979 52.7824 -1.4424 -0.0000 -0.0000 0.0000 84.8854 5.0024 18.3096 -12.9860 21.2666 -2.4482 0.0000 0.0000 14.5903 -12.0606 -22.4960 4.6736 7.1250 -0.0000 -0.0000 17.2145 -52.1099 -3.0884
0.00 0.00 0.00 -56.2003 -81.4420 62.9282 0.0000 0.0000 0.0000 -7.2785 -11.7282 -13.5747 1.8000 8.4365 24.0478 0.3305 -6.9992 -10.6379 0.0244 -1.0091 -2.7740 0.0000 0.0000 0.0000 28.1232 -4.8306 -32.6198 -8.1003 -16.1925 52.9230 0.9401 -17.6401 -12.1957 -0.1343 -2.3625 6.5086 -2.5830 4.4157 1.7510 -7.7701 5.7174 2.5075 -6.6252 2.8032 2.1703 3.5069 14.9672 -8.9732 -7.9095 22.3639 30.9888 -0.4148 8.9613 13.2848 -0.0000 0.0000 0.0000 -71.8235 -7.5956 -9.9260 15.1613 -24.3704 -3.2922 -0.0000 -0.0000 32.9166 16.7529 24.3014 7.0619 -7.1250 0.0000 -0.0000 -13.4382 54.7209 -3.2528 -0.0000 0.0000 0.0000 89.4099 5.3867 30.2529 -16.0937 25.6475 -3.6864 0.0000 0.0000 14.7952 -9.6615 -21.0048 3.4920 7.1250 -0.0000 -0.0000 18.8067 -50.2947 -2.5326
0.00 0.00 0.00 -24.3291 -69.3310 28.8092 0.0000 0.0000 0.0000 1.9251 -17.8968 -2.3736 5.0857 13.4797 41.1917 -0.0632 -12.4517 16.8661 0.5094 -4.5751 -12.7004 0.0000 0.0000 0.0000 25.9289 3.5316 -27.7300 -3.0038 -10.7012 31.2786 0.2695 -12.5077 -13.6675 -0.4762 -4.4255 12.2769 0.2423 5.2688 2.3433 -7.3729 6.9833 3.4503 -7.7836 3.5672 3.2505 3.8222 14.2029 -7.9565 -6.5731 21.1482 32.6421 -0.2240 8.6340 13.5335 -0.0000 0.0000 0.0000 -80.0511 -6.7127 -11.7288 13.8276 -22.4876 -2.7618 -0.0000 -0.0000 18.5438 13.8155 29.3159 6.8656 -7.1250 0.0000 -0.0000 -19.4262 58.9506 -6.7840 -0.0000 0.0000 0.0000 85.8792 6.7972 22.4226 -16.0260 25.5559 -3.6572 0.0000 0.0000 15.1374 -10.4225 -21.4046 3.8405 7.1250 -0.0000 -0.0000 18.2717 -50.7951 -2.6862
0.00 0.00 0.00 -31.0009 -70.4163 33.2495 0.0000 0.0000 0.0000 4.7536 -19.0694 -11.4441 8.1668 16.2406 53.1613 -0.1101 -11.5309 14.7498 0.3882 -4.0008 -11.0789 0.0000 0.0000 0.0000 32.4595 1.6815 -17.5524 -2.9135 -10.5537 30.7892 -0.2359 -10.0139 -17.5790 -0.2635 -3.3024 9.1218 3.0582 5.2352 1.8997 -6.5372 6.9903 2.6602 -8.4711 3.6383 2.9124 3.4817 13.9759 -8.1764 -5.4707 20.6796 33.9916 0.1895 8.4153 13.9364 -0.0000 0.0000 0.0000 -81.3662 -9.0986 20.0418 20.6122 -31.3728 -5.8467 -0.0000 -0.0000 15.4725 14.3826 20.2805 5.0793 -7.1250 0.0000 -0.0000 -14.0243 50.3317 -1.8751 -0.0000 0.0000 0.0000 83.4694 9.3265 25.5200 -19.5881 30.1428 -5.3229 0.0000 0.0000 13.8275 -11.3178 -21.2770 4.1539 7.1250 -0.0000 -0.0000 17.3645 -50.8157 -2.5545
0.00 0.00 0.00 -77.2573 -81.4233 79.7110 0.0000 0.0000 0.0000 -2.3462 -16.2523 -21.2975 2.7961 10.3574 30.1420 0.0819 -7.6872 -7.0100 0.1576 -2.5578 -7.0498 0.0000 0.0000 0.0000 24.4850 -2.7108 -14.1338 -9.0975 -16.8700 56.4266 0.4272 -13.4953 2.6088 -0.0476 -1.4086 3.8737 2.1277 4.7030 2.2576 -5.8732 6.2265 2.1281 -7.3106 3.1747 1.8342 2.8192 14.0076 -8.6130 -5.1440 20.6485 36.1528 0.4570 8.0740 14.9053 0.0000 -0.0000 0.0000 -71.3796 -11.3457 -2.6137 14.6001 -23.5861 -3.0641 -0.0000 -0.0000 27.3885 12.6679 16.8783 3.7338 -7.1250 0.0000 -0.0000 -14.3984 46.7324 -0.6283 0.0000 -0.0000 0.0000 82.7020 1.4908 15.3991 -14.7651 23.8179 -3.1305 0.0000 0.0000 17.2897 -9.7291 -20.7845 3.4817 7.1250 -0.0000 -0.0000 18.6438 -50.0958 -2.4157
